<svg xmlns="http://www.w3.org/2000/svg" xmlns:xlink="http://www.w3.org/1999/xlink" viewBox="0 0 1119.87 810.08"><defs><style>.cls-1{fill:url(#linear-gradient);}.cls-2{opacity:0.4;}.cls-3{fill:#fff;}</style><linearGradient id="linear-gradient" x1="-28.7" y1="453.74" x2="1149.34" y2="356.34" gradientUnits="userSpaceOnUse"><stop offset="0" stop-color="#003e8e"/><stop offset="1" stop-color="#0069af"/></linearGradient></defs><title>Recurso 1</title><g id="Capa_2" data-name="Capa 2"><g id="Capa_2-2" data-name="Capa 2"><rect class="cls-1" x="0.76" width="1119.11" height="810.08"/><g class="cls-2"><path class="cls-3" d="M109.28,294.07v-9.81l114.63-29c-21.62-12.52-48.84-17.08-73.68-17.08h-99V633.83h57.87V545.56h41.09q50.7,0,90-26.66l-130.9-18.81V489.7h-.14V294.07Z"/><path class="cls-3" d="M517.5,221.71a17.66,17.66,0,0,0-7.36-14.21A19,19,0,0,0,494,204.57L134.58,289.23a18,18,0,0,0-13.47,17.16l-.17,166.72a18.07,18.07,0,0,0,15.94,17.71l360.16,35a19.74,19.74,0,0,0,2.55.17,18.89,18.89,0,0,0,12.15-4.39,17.65,17.65,0,0,0,6.35-13.49ZM158,457.6l.15-137.68,322.44-74.59.51,242.29Z"/><path class="cls-3" d="M323,165c-1.85-21.53-21.43-37.55-43.74-35.77a40.9,40.9,0,0,0-28.12,14.34A333,333,0,0,0,118.37,116c-9,0-18.09.37-27.07,1.09A334.25,334.25,0,0,0,1.6,136.85c0,.29,0,.57,0,.85,0,9.82-.28,19.5-1,29.17A339.14,339.14,0,0,1,64.28,145.5a313.17,313.17,0,0,1,60.22-10.76c8.32-.67,16.74-1,25.05-1A311,311,0,0,1,247,149.49a37.76,37.76,0,0,0-4.8,21.94C244.05,193,263.64,209,286,207.2S324.85,186.52,323,165Z"/><path class="cls-3" d="M348.32,310.07a17.29,17.29,0,0,0-23.79-1.63,15.9,15.9,0,0,0-1.69,23L367.4,381,322.88,430.5a15.9,15.9,0,0,0,1.69,23,17.3,17.3,0,0,0,23.79-1.63l54.11-60.21a15.86,15.86,0,0,0,0-21.33Z"/><path class="cls-3" d="M344.72,370.3l-54.15-60.23a17.29,17.29,0,0,0-23.79-1.63,15.9,15.9,0,0,0-1.69,23L309.65,381,265.13,430.5a15.9,15.9,0,0,0,1.69,23,17.3,17.3,0,0,0,23.79-1.63l54.11-60.21A15.85,15.85,0,0,0,344.72,370.3Z"/><path class="cls-3" d="M434.25,587c-1.85-21.53-21.43-37.55-43.74-35.76s-38.9,20.68-37.06,42.21a38.77,38.77,0,0,0,16.42,28.31C320.7,673.23,252.16,707.78,174.14,714A307,307,0,0,1,1.65,677.37c.07,10.21.24,20.5,0,30.75A304.68,304.68,0,0,0,79.9,744.36a340.76,340.76,0,0,0,65.24,1c94.65-7.56,176.57-53.23,230.9-120.08a41.61,41.61,0,0,0,21.16,3.84C419.5,627.39,436.09,608.49,434.25,587Z"/><path class="cls-3" d="M1.52,713.16c-.11,2.85-.25,5.7-.44,8.55a36,36,0,0,1,.2,3.72,314.87,314.87,0,0,0,59,16.16A319.64,319.64,0,0,1,1.52,713.16Z"/><path class="cls-3" d="M.21,172.42c-.06.74-.14,1.48-.21,2.22,8.18-4.55,16.58-8.78,25.25-12.58C16.72,165.17,8.39,168.65.21,172.42Z"/></g></g></g></svg>